HIERARCHY
ROOT base
{
	OFFSET 0.0 0.0 0.0
	CHANNELS 6 Xposition Yposition Zposition Zrotation Yrotation Xrotation
	JOINT root
	{
		OFFSET 0 0 0
		CHANNELS 6 Xposition Yposition Zposition Zrotation Yrotation Xrotation
		JOINT chest
		{
			OFFSET 0 4.72302 0
			CHANNELS 3 Zrotation Yrotation Xrotation
			JOINT neck
			{
				OFFSET 0 4.47788 0
				CHANNELS 3 Zrotation Yrotation Xrotation
				End Site
				{
					OFFSET 0.0 0.0 0.0
				}
			}
			JOINT right_shoulder
			{
				OFFSET -0.481 4.87 3.6622
				CHANNELS 3 Zrotation Yrotation Xrotation
				JOINT right_elbow
				{
					OFFSET 0 -5.49576 0
					CHANNELS 3 Zrotation Yrotation Xrotation
					JOINT right_wrist
					{
						OFFSET 0 -5.17894 0
						CHANNELS 3 Zrotation Yrotation Xrotation
						End Site
						{
							OFFSET 0.0 0.0 0.0
						}
					}
				}
			}
			JOINT left_shoulder
			{
				OFFSET -0.481 4.87 -3.6622
				CHANNELS 3 Zrotation Yrotation Xrotation
				JOINT left_elbow
				{
					OFFSET 0 -5.49576 0
					CHANNELS 3 Zrotation Yrotation Xrotation
					JOINT left_wrist
					{
						OFFSET 0 -5.17894 0
						CHANNELS 3 Zrotation Yrotation Xrotation
						End Site
						{
							OFFSET 0.0 0.0 0.0
						}
					}
				}
			}
		}
		JOINT right_hip
		{
			OFFSET 0 0 1.69774
			CHANNELS 3 Zrotation Yrotation Xrotation
			JOINT right_knee
			{
				OFFSET 0 -8.43092 0
				CHANNELS 3 Zrotation Yrotation Xrotation
				JOINT right_ankle
				{
					OFFSET 0 -8.1974 0
					CHANNELS 3 Zrotation Yrotation Xrotation
					End Site
					{
						OFFSET 0.0 0.0 0.0
					}
				}
			}
		}
		JOINT left_hip
		{
			OFFSET 0 0 -1.69774
			CHANNELS 3 Zrotation Yrotation Xrotation
			JOINT left_knee
			{
				OFFSET 0 -8.43092 0
				CHANNELS 3 Zrotation Yrotation Xrotation
				JOINT left_ankle
				{
					OFFSET 0 -8.1974 0
					CHANNELS 3 Zrotation Yrotation Xrotation
					End Site
					{
						OFFSET 0.0 0.0 0.0
					}
				}
			}
		}
	}
	JOINT red_arrow
	{
		OFFSET 0 0 0
		CHANNELS 3 Zrotation Yrotation Xrotation
		End Site
		{
			OFFSET 0.0 0.0 0.0
		}
	}
	JOINT blue_arrow
	{
		OFFSET 0 0 0
		CHANNELS 3 Zrotation Yrotation Xrotation
		End Site
		{
			OFFSET 0.0 0.0 0.0
		}
	}
}
MOTION
Frames: 9
Frame Time: 0.0333333333333333
-3.41854338645935 0 6.95748147964478 0 8.5732515497547 0 0 16.6040968418121 0 -84.3767132360027 13.4408866048169 69.1348497794233 3.26320569073268 8.15782519330283 -10.4187908939551 -2.96514035419562 -8.06304823990854 9.10284987527416 27.2551415018608 16.0264122191189 -33.7543786617295 33.8204022602756 0 0 0 0 0 39.7904830222558 -47.3223306840469 35.9102564313169 42.6193080811799 0 0 0 0 0 131.847873638997 0.604785792486853 -6.33375235235943 -38.6188560390197 0 0 7.58809032596645 -0.348969476561593 -4.49638824117173 108.399629147394 8.37347771805864 2.95248567418549 -45.8238347642639 0 0 3.00599026393839 14.7173372672949 -8.65305902407003 0 0 0 0 0 0
-3.98941091299057 0 6.02813568115234 0 9.00063439108832 0 0 14.974506855011 0 -77.8970089424366 1.71355529139317 65.274828929215 -3.40518897250079 3.51078741999973 -4.59016335319635 -0.745207914817683 -5.78832287023298 11.0213717634922 32.6611463568307 21.3171018530032 -28.4168930720879 31.2987237394635 0 0 0 0 0 46.2620480280888 -57.4552769528832 29.7983844949308 37.8110973772064 0 0 0 0 0 133.881696235436 5.23509329908281 -6.95598049932964 -61.3077096881428 0 0 14.1071490227121 -6.6190268834286 -3.17171792813619 99.4676168382555 13.6219600757458 3.56007996637517 -52.7464124880849 0 0 33.8274964952287 20.0930209294761 -13.265996665021 0 0 0 0 0 0
-4.23869925737381 0 5.39797313213348 0 8.20931646811966 0 0 14.5935732841492 0 -74.2602410706139 -4.16743453075135 62.8465783220248 -8.94578782640487 1.59932647234172 -1.68524845805067 -5.02700898945348 -4.90565284889834 14.1997179911418 33.5127507038615 20.3618896858675 -24.5716474263503 29.4625878905511 0 0 0 0 0 51.4461285289388 -56.7210395146913 20.9928930275588 32.0872588338578 0 0 0 0 0 130.400679020941 7.27548948674229 -7.28835605153529 -63.679868537834 0 0 12.2843673101091 -8.72544939064319 -1.89640365132259 98.8149105161468 15.0786602990285 5.00806426972869 -60.7385705151731 0 0 34.9201116005766 16.542031899129 -11.8149120753812 0 0 0 0 0 0
-4.32697488069534 0 4.97393469810486 0 6.61925398315231 0 0 14.5278262138367 0 -70.6281506247902 -10.9314719227108 58.6399435381621 -14.8462466126365 0.218496813790187 3.12513046783736 -9.94586547196618 -2.74679711365903 17.3070226890406 33.8226550351186 19.875461626031 -23.1635390176687 26.7857923585935 0 0 0 0 0 47.8854906891543 -48.7515801342029 21.1561843036356 28.8559851299839 0 0 0 0 0 123.211307301325 4.56179347921884 -9.25892556942685 -62.5357093990193 0 0 10.3320899839489 -7.34848089639865 -1.72585886209475 93.9972472199878 15.0548646583892 6.28615708306851 -63.3807745540792 0 0 35.0969447168127 14.2270233128351 -10.7470153524461 0 0 0 0 0 0
-4.3337598323822 0 4.70677106380463 0 4.69780109503414 0 0 14.5722552061081 0 -65.2181632103696 -17.2365747012342 53.189783550986 -18.38393309642 -0.834418739545992 7.24746666052255 -14.4924014926921 -0.34512789521052 20.1284721264094 34.3320957934187 19.8717999142754 -20.9957976209691 22.9757369621893 0 0 0 0 0 44.907823619702 -42.125915462187 20.4387792585665 25.8045281088418 0 0 0 0 0 114.557355913583 1.25920716366723 -11.8297916968875 -60.8852215068424 0 0 8.99400075818373 -5.53436578180916 -1.83377450055187 86.9161902643798 14.8401305183716 6.8589926393615 -63.9448525568738 0 0 34.7186115294733 12.0588532230939 -9.84383216574387 0 0 0 0 0 0
-4.27526353597641 0 4.56828050613403 0 2.65112399149045 0 0 14.7823280572891 0 -59.0016098650349 -22.5564836294318 47.0793805054141 -19.2654514332165 -2.06644960393323 10.4523501811988 -18.6974561501394 1.21626144033852 20.654574410395 35.250608282328 19.1560658945653 -17.591079234936 20.283829636693 0 0 0 0 0 42.2213607530645 -37.3246327026544 18.4271762319523 22.9679078578531 0 0 0 0 0 104.605070065191 -1.43835690512713 -13.2716487558815 -57.5914037607388 0 0 7.53222038857906 -4.9091712683015 -1.51589988589442 78.5049794033072 14.4888789752232 7.26972308539999 -62.1191634822969 0 0 33.5799461730814 10.3418638109497 -9.09309770955571 0 0 0 0 0 0
-4.17709671258926 0 4.57848472595215 0 0.5737827601282 0 0 15.2209800720215 0 -52.5554185495363 -26.5947346387924 40.3048698882394 -18.130802994644 -3.63990461267761 13.1759577796917 -22.2622701906809 1.84509943469781 19.4460589336959 35.4757627435745 17.1763401932967 -13.887927995632 18.9213349633224 0 0 0 0 0 39.1051282834722 -33.8732032989796 15.6294188150242 21.4589227022587 0 0 0 0 0 92.9830532773742 -3.85417563712993 -13.1014564447398 -51.3548604824377 0 0 5.39907413629605 -5.75040562130158 -0.806839544628485 68.9455267009619 13.9625685086085 7.88221801563106 -56.9303985434325 0 0 31.0808130746447 8.87170583025576 -8.6571761193606 0 0 0 0 0 0
-4.05251550078392 0 4.76150673627853 0 -1.45562733623581 0 0 15.833201777935 0 -45.4403900580493 -29.2180595587914 32.7945000429406 -16.243824253403 -5.31608215592037 15.3003458841785 -24.7365723539589 1.5027914605149 17.2244643108484 34.1532038481377 14.0371992534554 -10.9615317082985 18.5372341527049 0 0 0 0 0 35.5240204999225 -30.8452957749723 12.717829486455 21.5308667923337 0 0 0 0 0 79.3621021348612 -6.06868314647956 -11.4418226754673 -42.7608774121067 0 0 3.16835872221923 -7.60110592602239 -0.193630034415454 57.7628992231476 13.3480574146149 8.5363913313223 -48.1163877591787 0 0 27.0010700339314 7.44073278773856 -8.6723737052491 0 0 0 0 0 0
-3.94606668353081 0 5.08685815930367 0 -3.39247561812346 0 0 16.4894445538521 0 -38.1593383883556 -30.4651811812924 25.0345399599054 -14.010628544606 -6.50655620068725 16.0272149841388 -25.7114970126895 0.614419597816793 14.3944002015881 31.981807390152 10.4690785753606 -8.19023831360635 18.9739854765395 0 0 0 0 0 31.6095387838431 -28.5194145666749 10.4420440467939 21.7739463947053 0 0 0 0 0 64.5074267075974 -7.66990066538209 -7.92409823365735 -33.3438019052758 0 0 1.34166657185712 -8.7930758077601 -0.0672619655664558 45.721862853965 12.6446191794562 9.50095713722055 -36.3340997050424 0 0 21.4775586409851 5.6276031054253 -8.70807823258528 0 0 0 0 0 0
